<svg id="Layer_1" data-name="Layer 1" xmlns="http://www.w3.org/2000/svg" viewBox="0 0 265.85 384.7"><defs><style>.cls-1{fill:#be1818;}.cls-2{fill:#bfac4d;}</style></defs><path d="M82.54,73.1q19.5,1,28.11,7.31t8.61,17.39q0,14-14.46,24.23T68,132.21L60.87,132q-9.06-.34-15.32-.34c-3,0-6.74.09-11.15.29l-7.52.22v-3.3q5.61-2.2,6.66-3.38a6.56,6.56,0,0,0,1.22-3.9q.65-8.73.64-19.91V56q0-18.37-1.63-20.79-2-2.88-9.71-2.87H17.9V27.67h7.53l8.34.26q6.52.26,10.24.26,5.72,0,22.58-.46l13.23-.28q15.6,0,23.3,4.43,9.7,5.6,9.7,15.85,0,8.42-6.84,14.75T82.54,73.1ZM52.44,71c3,.14,5.81.22,8.34.22q18,0,25.84-5.18t7.8-15q0-8.45-6.53-13T67,33.62a108,108,0,0,0-13.78,1q-.81,9-.82,27.11Zm0,53.85a120.38,120.38,0,0,0,14,1q16,0,24.89-6.94t8.84-18.84q0-7.94-3.9-13.12a22.15,22.15,0,0,0-10.92-7.56Q78.28,77,62.87,77q-4.62,0-10.43.22v26.08l.09,9.26c.19,3.33.28,5.87.28,7.64A35.19,35.19,0,0,1,52.44,124.87Z"/><path class="cls-1" d="M133.45,79.79q0-24.17,15.58-38.93t41.54-14.77q25.43,0,39.88,13.7T244.89,76.2q0,24.45-16.76,40.91t-42.27,16.46q-15.95,0-27.49-6.46a46.09,46.09,0,0,1-18.23-18.89Q133.45,95.82,133.45,79.79Zm14.91-6q0,16.61,5.7,28.91t15.26,18.44a39.53,39.53,0,0,0,21.84,6.13A37.36,37.36,0,0,0,211.08,122q8.53-5.22,13.42-15.58t4.89-25.2q0-15.57-5.4-26.63A38.28,38.28,0,0,0,209.17,38q-9.4-5.58-22.28-5.58-11.76,0-20.29,4.92a34.05,34.05,0,0,0-13.39,14.44A47.81,47.81,0,0,0,148.36,73.77Z"/><path d="M58.51,194.8l50.11,46.65,4.55,4.34a7,7,0,0,0,2.83,1.83,17.7,17.7,0,0,0,4.74.44v4.63c-4-.34-7.54-.51-10.58-.51s-6.66.17-10.43.51l-50.62-48c-1.71-1.62-2.77-2.43-3.16-2.43-1,0-1.54,1-1.54,2.87v22.4q0,16.39.67,17.93,1.1,2.64,8,2.64h5.54v4.63q-12-.51-21.27-.51-9.7,0-20.9.51v-4.63h5.95q5.88,0,7.05-2.16t1.18-18.7V178.05q0-20.2-1.18-22.73t-7-2.54H16.42v-4.63q13.47.53,19.5.52,4.35,0,22.67-.52v4.63l-5.83.22q-5,.23-6.36,1.36c-.88.76-1.44,2.27-1.66,4.52s-.33,8.74-.33,19.47v19.83h1q6-4.92,10.36-9t14.25-14.29l20.86-21.6v-5.14q8.09.53,13.37.52,5.52,0,12.2-.52v4.63h-4a18.34,18.34,0,0,0-9,2q-3.67,2-17,14.22Z"/><path d="M207.78,217.83h-42.5l-5,11.83q-4.92,11.76-4.92,14.4a2.88,2.88,0,0,0,.92,2.42c.61.5,2.16.89,4.66,1.18l7,.81v4.63q-7-.53-15.87-.52-10.57,0-18.58.52v-4.63l2.2-.08c3.43-.09,5.65-.45,6.65-1.06s2.07-2.12,3.2-4.52q5.2-10.58,10.65-22.85l20.2-45.76q8.08-18.22,11-26.45h5l37.17,86.47q3.75,8.81,5,10.61a7.35,7.35,0,0,0,2.86,2.57c1.08.52,3.5.87,7.27,1.07v4.63q-9.54-.53-18.21-.52-8.08,0-21.53.52v-4.63l7.27-.44c2.6-.2,4.14-.47,4.63-.81a2.44,2.44,0,0,0,1.1-2.06q0-1.32-2.2-6.9Zm-39.76-6h37l-18.49-44.13Z"/><path d="M87.19,338.42H44.69l-5,11.83q-4.92,11.76-4.92,14.4a2.91,2.91,0,0,0,.92,2.43c.61.49,2.16.88,4.66,1.17l7.05.81v4.63q-7.05-.53-15.87-.52-10.57,0-18.58.52v-4.63l2.2-.07q5.15-.15,6.65-1.07T25,363.4q5.2-10.57,10.65-22.85l20.2-45.76q8.09-18.23,11-26.45h5l37.17,86.47q3.75,8.81,5,10.61a7.35,7.35,0,0,0,2.86,2.57c1.08.52,3.5.87,7.27,1.07v4.63q-9.54-.53-18.21-.52-8.08,0-21.53.52v-4.63l7.27-.44c2.6-.2,4.14-.47,4.63-.81a2.46,2.46,0,0,0,1.1-2.06q0-1.32-2.2-6.9Zm-39.76-6h37L66,288.27Z"/><path d="M175.58,365.94q7.2.36,14,.36,13.81,0,21.6-.73a75,75,0,0,0,11.24-2.13l4.41-17.27h4.77q-1.83,13.89-2.86,25.94a116.24,116.24,0,0,1-18.07,1.1l-35-.59q-7,0-22,.81v-3.89q5.88-2.58,6.94-5.51t1.07-23.29V300.33q0-22-1.07-24.57t-6-2.54h-8V268.6q17.47.51,23.21.51,7.65,0,20.72-.51v4.62h-9.11q-3.9,0-4.92,2.24t-1,18.63v46.79l.22,20.72Z"/><path class="cls-2" d="M228.86,26c3.39-4.45,8.47-9,15.18-10.16-6.21-.5-16.41,1.59-23,6C217.9,11.47,205.57,4.92,198.72,4.92c10.89,4.43,15.53,25,15.32,27.49l.78.15a11.32,11.32,0,0,0,1.1,3.64l4.75-.19,3.92,2.82c1.17-1.64,16.23-9.71,28.29-3.33C247.85,30.86,237.13,25.76,228.86,26Z"/></svg>