<svg id="Layer_1" data-name="Layer 1" xmlns="http://www.w3.org/2000/svg" viewBox="0 0 265.85 384.7"><defs><style>.cls-1{fill:#fff;}.cls-2{fill:#be1818;}.cls-3{fill:#bfac4d;}</style></defs><path class="cls-1" d="M86.78,73.54q19.5,1,28.11,7.31t8.61,17.39q0,14-14.46,24.23T72.28,132.65l-7.17-.17q-9.06-.34-15.32-.34c-3,0-6.74.09-11.15.29l-7.53.22v-3.31c3.75-1.47,6-2.59,6.67-3.38A6.52,6.52,0,0,0,39,122.07q.63-8.75.64-19.91V56.39Q39.64,38,38,35.6q-2-2.87-9.7-2.86H22.14V28.11h7.52l8.34.26c4.36.17,7.77.25,10.25.25q5.72,0,22.57-.45l13.24-.28q15.6,0,23.3,4.42,9.7,5.61,9.7,15.86,0,8.4-6.84,14.75T86.78,73.54Zm-30.1-2.09q4.53.22,8.34.22,18,0,25.84-5.18t7.8-14.95q0-8.44-6.53-13T71.28,34.06A108,108,0,0,0,57.5,35q-.82,9-.82,27.1Zm0,53.85a118.51,118.51,0,0,0,14,1q16,0,24.89-6.94t8.84-18.84q0-7.93-3.9-13.12a22.15,22.15,0,0,0-10.92-7.56q-7-2.4-22.44-2.39-4.62,0-10.43.22v26.08l.09,9.25c.18,3.34.27,5.88.27,7.64A34.76,34.76,0,0,1,56.68,125.3Z"/><path class="cls-2" d="M137.69,80.23q0-24.16,15.58-38.93t41.54-14.77q25.42,0,39.88,13.7t14.44,36.4q0,24.47-16.76,40.92T190.1,134q-15.94,0-27.49-6.47a46.06,46.06,0,0,1-18.23-18.88Q137.69,96.26,137.69,80.23Zm14.91-6q0,16.61,5.7,28.91t15.26,18.44a39.52,39.52,0,0,0,21.83,6.13,37.4,37.4,0,0,0,19.93-5.22q8.53-5.2,13.42-15.57t4.89-25.2q0-15.57-5.4-26.63T213.41,38.43q-9.41-5.58-22.28-5.58-11.76,0-20.29,4.92a34,34,0,0,0-13.39,14.44A47.81,47.81,0,0,0,152.6,74.21Z"/><path class="cls-1" d="M62.75,195.24l50.11,46.65,4.55,4.33a6.84,6.84,0,0,0,2.83,1.84,18,18,0,0,0,4.74.44v4.63c-4-.34-7.54-.51-10.58-.51s-6.66.17-10.43.51l-50.62-48c-1.71-1.61-2.77-2.42-3.16-2.42-1,0-1.54,1-1.54,2.86v22.41q0,16.38.66,17.93,1.11,2.64,8,2.64h5.54v4.63q-12-.51-21.27-.51-9.72,0-20.9.51V248.5h5.95q5.88,0,7-2.17t1.18-18.69V178.49q0-20.2-1.18-22.74t-7-2.53H20.66v-4.63q13.47.51,19.5.51,4.35,0,22.67-.51v4.63l-5.84.22q-5,.23-6.35,1.36c-.88.76-1.44,2.26-1.66,4.52s-.33,8.74-.33,19.46v19.84h1q6-4.92,10.36-9t14.25-14.29l20.86-21.6v-5.14q8.09.51,13.37.51,5.51,0,12.2-.51v4.63h-4a18.31,18.31,0,0,0-9,2q-3.67,2-17,14.21Z"/><path class="cls-1" d="M212,218.27h-42.5l-5,11.83q-4.92,11.76-4.92,14.4a2.89,2.89,0,0,0,.92,2.42c.61.49,2.16.88,4.66,1.18l7.05.81v4.62q-7-.51-15.87-.51-10.57,0-18.58.51v-4.62l2.2-.08q5.15-.15,6.65-1.06t3.2-4.52q5.21-10.58,10.65-22.85l20.2-45.77q8.09-18.21,11-26.44h5l37.17,86.46q3.75,8.82,5,10.62a7.35,7.35,0,0,0,2.86,2.57q1.62.76,7.27,1.07v4.62q-9.54-.51-18.22-.51-8.07,0-21.52.51v-4.62l7.27-.45c2.6-.19,4.14-.46,4.63-.8a2.47,2.47,0,0,0,1.1-2.06q0-1.32-2.2-6.91Zm-39.76-6h37l-18.5-44.14Z"/><path class="cls-1" d="M91.43,338.86H48.93l-5,11.83Q39,362.45,39,365.09a2.92,2.92,0,0,0,.91,2.42c.62.49,2.17.88,4.67,1.18l7,.81v4.62q-7-.51-15.87-.51-10.58,0-18.58.51V369.5l2.2-.08c3.43-.09,5.64-.45,6.65-1.06s2.07-2.12,3.2-4.52q5.2-10.57,10.65-22.85l20.2-45.77q8.08-18.21,11-26.44h5l37.17,86.46q3.75,8.82,5,10.62a7.44,7.44,0,0,0,2.87,2.57c1.08.52,3.5.87,7.27,1.07v4.62q-9.54-.51-18.22-.51-8.08,0-21.52.51V369.5l7.27-.44c2.6-.2,4.14-.47,4.63-.81a2.47,2.47,0,0,0,1.1-2.06q0-1.32-2.2-6.91Zm-39.76-6h37L70.18,288.7Z"/><path class="cls-1" d="M179.82,366.37q7.2.38,14,.37,13.82,0,21.6-.73a76.27,76.27,0,0,0,11.24-2.13l4.41-17.27h4.77Q234,360.5,233,372.54a114.86,114.86,0,0,1-18.08,1.11l-35-.59q-7.07,0-22,.81V370q5.88-2.57,6.94-5.51T166,341.18V300.77q0-22-1.07-24.57t-6-2.54h-8V269q17.48.53,23.21.52,7.64,0,20.72-.52v4.63h-9.11q-3.9,0-4.92,2.24t-1,18.63v46.79L180,362Z"/><path class="cls-3" d="M233.1,26.44c3.39-4.46,8.47-9,15.18-10.16-6.22-.51-16.41,1.59-23,6C222.14,11.91,209.81,5.36,203,5.36c10.89,4.43,15.52,25,15.32,27.49l.77.14a11.67,11.67,0,0,0,1.11,3.65l4.74-.19,3.93,2.82c1.17-1.64,16.23-9.71,28.29-3.34C252.09,31.3,241.37,26.2,233.1,26.44Z"/></svg>