<svg xmlns="http://www.w3.org/2000/svg" xmlns:xlink="http://www.w3.org/1999/xlink" width="100" height="100" viewBox="0 0 100 100">
  <defs>
    <clipPath id="clip-coin-green">
      <rect width="100" height="100"/>
    </clipPath>
  </defs>
  <g id="coin-green" clip-path="url(#clip-coin-green)">
    <rect width="100" height="100" fill="#fff"/>
    <g id="coin">
      <g id="Group_42" data-name="Group 42">
        <g id="Group_41" data-name="Group 41">
          <path id="Path_36" data-name="Path 36" d="M50,0a50,50,0,1,0,50,50A50,50,0,0,0,50,0ZM67.449,75.329a30.818,30.818,0,0,1-4.671,1.687,31.007,31.007,0,0,1-18.251-.226C37.2,74.424,32.346,69.424,29.444,62.428c-.556-1.358-.926-2.778-1.358-4.2H22.346A1.726,1.726,0,0,1,20.617,56.5V52.634a1.726,1.726,0,0,1,1.728-1.728H27.1V47.757H22.346a1.726,1.726,0,0,1-1.728-1.728V42.16a1.726,1.726,0,0,1,1.728-1.728H28.4l.206-.6a25.6,25.6,0,0,1,8.724-12.922,24.96,24.96,0,0,1,11.6-4.794A32.957,32.957,0,0,1,66.461,24.2a7.291,7.291,0,0,1,1.07.514,2.316,2.316,0,0,1,1.111,3.272c-.638,1.523-1.276,3.066-1.975,4.568a2.176,2.176,0,0,1-2.819,1.4c-1.914-.432-3.786-1.029-5.7-1.42a20.693,20.693,0,0,0-11.975.679c-3.374,1.337-5.432,3.909-6.831,7.119a.261.261,0,0,0-.021.123H51.07A1.726,1.726,0,0,1,52.8,42.181v3.868a1.726,1.726,0,0,1-1.728,1.728H37.654c-.021,1.029,0,2.058,0,3.148H51.091a1.726,1.726,0,0,1,1.728,1.728v3.868a1.726,1.726,0,0,1-1.728,1.728H38.827c1.481,4.239,3.889,7.51,8.416,8.93a21.388,21.388,0,0,0,10.926.309c1.893-.391,3.745-.967,5.638-1.4a2.19,2.19,0,0,1,2.9,1.42q1.049,2.284,1.975,4.63A2.218,2.218,0,0,1,67.449,75.329Z" fill="#d5d962"/>
        </g>
      </g>
    </g>
  </g>
</svg>
