<svg width="501" height="500" viewBox="0 0 501 500" fill="none" xmlns="http://www.w3.org/2000/svg">
<path d="M295.817 249.991L490.513 55.301C503.183 42.6372 503.183 22.1616 490.513 9.49784C477.848 -3.16595 457.371 -3.16595 444.707 9.49784L250.005 204.188L55.3088 9.49784C42.6383 -3.16595 22.1674 -3.16595 9.50286 9.49784C-3.16762 22.1616 -3.16762 42.6372 9.50286 55.301L204.199 249.991L9.50286 444.681C-3.16762 457.345 -3.16762 477.821 9.50286 490.484C15.8144 496.801 24.1131 499.975 32.4058 499.975C40.6986 499.975 48.9914 496.801 55.3088 490.484L250.005 295.794L444.707 490.484C451.024 496.801 459.317 499.975 467.61 499.975C475.902 499.975 484.195 496.801 490.513 490.484C503.183 477.821 503.183 457.345 490.513 444.681L295.817 249.991Z" fill="#F24405"/>
</svg>
