<svg xmlns="http://www.w3.org/2000/svg" xmlns:xlink="http://www.w3.org/1999/xlink" width="100" height="100" viewBox="0 0 100 100">
  <defs>
    <clipPath id="clip-kg-green">
      <rect width="100" height="100"/>
    </clipPath>
  </defs>
  <g id="kg-green" clip-path="url(#clip-kg-green)">
    <rect width="100" height="100" fill="#fff"/>
    <g id="warehouse" transform="translate(0)">
      <path id="Path_37" data-name="Path 37" d="M98.65,32.842,51.775.55a3.133,3.133,0,0,0-3.546,0L1.354,32.842A3.12,3.12,0,0,0,0,35.417V95.833A4.168,4.168,0,0,0,4.167,100H12.5V50a4.168,4.168,0,0,1,4.167-4.167H83.334A4.168,4.168,0,0,1,87.5,50v50h8.333A4.168,4.168,0,0,0,100,95.833V35.417A3.126,3.126,0,0,0,98.65,32.842Z" transform="translate(0 0)" fill="#d5d962"/>
      <path id="Path_38" data-name="Path 38" d="M21.125,19v3.125a3.125,3.125,0,0,1-6.25,0V19H7.583A2.084,2.084,0,0,0,5.5,21.083V37.75a2.084,2.084,0,0,0,2.083,2.083H28.417A2.084,2.084,0,0,0,30.5,37.75V21.083A2.084,2.084,0,0,0,28.417,19Z" transform="translate(17.417 60.167)" fill="#d5d962"/>
      <path id="Path_39" data-name="Path 39" d="M28.125,19v3.125a3.125,3.125,0,0,1-6.25,0V19H14.583A2.084,2.084,0,0,0,12.5,21.083V37.75a2.084,2.084,0,0,0,2.083,2.083H35.417A2.084,2.084,0,0,0,37.5,37.75V21.083A2.084,2.084,0,0,0,35.417,19Z" transform="translate(39.583 60.167)" fill="#d5d962"/>
      <path id="Path_40" data-name="Path 40" d="M24.625,13v3.125a3.125,3.125,0,0,1-6.25,0V13H11.083A2.084,2.084,0,0,0,9,15.083V31.75a2.084,2.084,0,0,0,2.083,2.083H31.917A2.084,2.084,0,0,0,34,31.75V15.083A2.084,2.084,0,0,0,31.917,13Z" transform="translate(28.5 41.167)" fill="#d5d962"/>
    </g>
  </g>
</svg>
